<?xml version="1.0" encoding="UTF-8" standalone="no"?>
<!-- Created with Inkscape (http://www.inkscape.org/) -->

<svg
   xmlns:dc="http://purl.org/dc/elements/1.1/"
   xmlns:cc="http://creativecommons.org/ns#"
   xmlns:rdf="http://www.w3.org/1999/02/22-rdf-syntax-ns#"
   xmlns:svg="http://www.w3.org/2000/svg"
   xmlns="http://www.w3.org/2000/svg"
   xmlns:sodipodi="http://sodipodi.sourceforge.net/DTD/sodipodi-0.dtd"
   xmlns:inkscape="http://www.inkscape.org/namespaces/inkscape"
   width="92.734375"
   height="9.3359299"
   id="svg2"
   version="1.1"
   inkscape:version="0.48.4 r9939"
   sodipodi:docname="/home/venom00/theory/uni/tesi/snake-30c3-presentation/~/theory/uni/tesi/snake-30c3-presentation.svg">
  <defs
     id="defs4" />
  <sodipodi:namedview
     id="base"
     pagecolor="#000000"
     bordercolor="#666666"
     borderopacity="1.0"
     inkscape:pageopacity="1"
     inkscape:pageshadow="2"
     inkscape:zoom="3.959798"
     inkscape:cx="68.863271"
     inkscape:cy="-40.411828"
     inkscape:document-units="px"
     inkscape:current-layer="text2993"
     showgrid="false"
     fit-margin-top="0"
     fit-margin-left="0"
     fit-margin-right="0"
     fit-margin-bottom="0"
     inkscape:window-width="1592"
     inkscape:window-height="865"
     inkscape:window-x="0"
     inkscape:window-y="27"
     inkscape:window-maximized="1" />
  <metadata
     id="metadata7">
    <rdf:RDF>
      <cc:Work
         rdf:about="">
        <dc:format>image/svg+xml</dc:format>
        <dc:type
           rdf:resource="http://purl.org/dc/dcmitype/StillImage" />
        <dc:title></dc:title>
      </cc:Work>
    </rdf:RDF>
  </metadata>
  <g
     inkscape:label="Layer 1"
     inkscape:groupmode="layer"
     id="layer1"
     transform="translate(-49.831074,-206.9325)">
    <g
       style="font-size:10px;font-style:normal;font-weight:normal;line-height:125%;letter-spacing:0px;word-spacing:0px;fill:#ffffff;fill-opacity:1;stroke:none;font-family:Sans"
       id="text2993">
      <path
         d="m 52.658222,211.78113 c -0.725914,0 -1.228843,0.083 -1.508789,0.24902 -0.279949,0.16602 -0.419923,0.44922 -0.419922,0.84961 -1e-6,0.31901 0.104165,0.57292 0.3125,0.76172 0.211587,0.18555 0.498045,0.27832 0.859375,0.27832 0.498044,0 0.896807,-0.17578 1.196289,-0.52734 0.302731,-0.35482 0.454098,-0.8252 0.454102,-1.41114 l 0,-0.20019 -0.893555,0 m 1.791992,-0.3711 0,3.12012 -0.898437,0 0,-0.83008 c -0.205082,0.33203 -0.460616,0.5778 -0.766602,0.73731 -0.305993,0.15625 -0.680341,0.23437 -1.123047,0.23437 -0.559897,0 -1.00586,-0.15625 -1.33789,-0.46875 -0.328777,-0.31575 -0.493165,-0.7373 -0.493164,-1.26465 -10e-7,-0.61523 0.205077,-1.07909 0.615234,-1.3916 0.41341,-0.31249 1.028644,-0.46874 1.845703,-0.46875 l 1.259766,0 0,-0.0879 c -4e-6,-0.41341 -0.136723,-0.73242 -0.410156,-0.95703 -0.270186,-0.22786 -0.651045,-0.34179 -1.142578,-0.3418 -0.312503,1e-5 -0.616865,0.0374 -0.913086,0.11231 -0.296226,0.0749 -0.581056,0.18718 -0.854493,0.33691 l 0,-0.83008 c 0.328775,-0.12694 0.647785,-0.22134 0.957032,-0.2832 0.309242,-0.0651 0.610349,-0.0976 0.90332,-0.0976 0.791012,0 1.381832,0.20508 1.772461,0.61523 0.39062,0.41016 0.585932,1.0319 0.585937,1.86523"
         id="path3000"
         inkscape:connector-curvature="0" />
      <path
         d="m 56.305683,206.9325 0.898438,0 0,7.59765 -0.898438,0 0,-7.59765"
         id="path3002"
         inkscape:connector-curvature="0" />
      <path
         d="m 63.756855,211.57117 0,0.43945 -4.130859,0 c 0.03906,0.61849 0.224607,1.0905 0.55664,1.41602 0.335284,0.32226 0.800779,0.48339 1.396485,0.48339 0.345048,0 0.678706,-0.0423 1.000976,-0.12695 0.325516,-0.0846 0.647782,-0.21159 0.966797,-0.38086 l 0,0.84961 c -0.322271,0.13672 -0.652674,0.24089 -0.991211,0.3125 -0.338546,0.0716 -0.68197,0.10742 -1.030273,0.10742 -0.872399,0 -1.56413,-0.2539 -2.075196,-0.76172 -0.507813,-0.50781 -0.761719,-1.19466 -0.761718,-2.06054 -10e-7,-0.89518 0.240884,-1.60482 0.722656,-2.12891 0.485024,-0.52734 1.137693,-0.79101 1.958008,-0.79101 0.735673,0 1.316727,0.23763 1.743164,0.71289 0.429682,0.47201 0.644525,1.11491 0.644531,1.92871 m -0.898437,-0.26367 c -0.0065,-0.49154 -0.144862,-0.88379 -0.41504,-1.17676 -0.266931,-0.29297 -0.621748,-0.43945 -1.064453,-0.43946 -0.501305,1e-5 -0.903322,0.14161 -1.206054,0.42481 -0.299481,0.28321 -0.472007,0.68197 -0.517578,1.19629 l 3.203125,-0.005"
         id="path3004"
         inkscape:connector-curvature="0" />
      <path
         d="m 68.009785,211.90808 c -4e-6,0.4655 0.115556,0.83171 0.346679,1.09863 0.231116,0.26368 0.548498,0.39551 0.952149,0.39551 0.400385,0 0.714512,-0.13346 0.942383,-0.40039 0.231113,-0.26692 0.346673,-0.63151 0.346679,-1.09375 -6e-6,-0.45573 -0.117193,-0.81705 -0.351562,-1.08398 -0.234381,-0.27018 -0.550136,-0.40527 -0.947266,-0.40528 -0.393885,1e-5 -0.708012,0.13347 -0.942383,0.40039 -0.231123,0.26693 -0.346683,0.62989 -0.346679,1.08887 m 2.661133,1.45996 c -0.195319,0.25065 -0.419928,0.4362 -0.673829,0.55664 -0.250656,0.11719 -0.543625,0.17578 -0.878906,0.17578 -0.5599,0 -1.015629,-0.20182 -1.367187,-0.60546 -0.348311,-0.4069 -0.522464,-0.93588 -0.522461,-1.58692 -3e-6,-0.65104 0.175778,-1.18001 0.527343,-1.58691 0.351559,-0.4069 0.80566,-0.61035 1.362305,-0.61035 0.335281,0 0.629877,0.0618 0.883789,0.18554 0.2539,0.12045 0.476882,0.30437 0.668946,0.55176 l 0,-0.63965 0.698242,0 0,3.59375 c 0.475253,-0.0716 0.846346,-0.28808 1.113281,-0.64941 0.270174,-0.36458 0.405265,-0.83496 0.405273,-1.41114 -8e-6,-0.3483 -0.05209,-0.67545 -0.15625,-0.98144 -0.100919,-0.30599 -0.255542,-0.58919 -0.463867,-0.84961 -0.338549,-0.42643 -0.75196,-0.75195 -1.240234,-0.97656 -0.485032,-0.22786 -1.014003,-0.34179 -1.586914,-0.3418 -0.400396,1e-5 -0.78451,0.0537 -1.152344,0.16113 -0.367842,0.10418 -0.708011,0.26043 -1.020508,0.46875 -0.51107,0.33204 -0.91146,0.76824 -1.201172,1.3086 -0.28646,0.53711 -0.429689,1.11979 -0.429687,1.74804 -2e-6,0.51758 0.09277,1.00261 0.27832,1.45508 0.1888,0.45248 0.46061,0.85124 0.81543,1.19629 0.341794,0.33854 0.737301,0.5957 1.186523,0.77149 0.449215,0.17903 0.929358,0.26855 1.44043,0.26855 0.419916,0 0.8317,-0.0716 1.235352,-0.21484 0.406894,-0.13998 0.779615,-0.3418 1.118164,-0.60547 l 0.439453,0.54199 c -0.406909,0.31575 -0.851244,0.55664 -1.333008,0.72266 -0.478522,0.16927 -0.965175,0.2539 -1.459961,0.2539 -0.602218,0 -1.170251,-0.10742 -1.704102,-0.32226 -0.533857,-0.21159 -1.009117,-0.52084 -1.425781,-0.92774 -0.416668,-0.4069 -0.734051,-0.87728 -0.952148,-1.41113 -0.2181,-0.53711 -0.327149,-1.11328 -0.327149,-1.72852 0,-0.59244 0.110677,-1.15722 0.332032,-1.69433 0.221352,-0.53711 0.537107,-1.00911 0.947265,-1.41602 0.41992,-0.4134 0.904945,-0.72916 1.455078,-0.94726 0.550127,-0.22135 1.132808,-0.33203 1.748047,-0.33203 0.690098,0 1.329746,0.1416 1.918945,0.4248 0.592441,0.28321 1.088859,0.68523 1.489258,1.20606 0.244132,0.31901 0.429679,0.66569 0.556641,1.04003 0.130199,0.37436 0.195303,0.76173 0.195312,1.16211 -9e-6,0.85613 -0.258798,1.53158 -0.776367,2.02637 -0.517586,0.49479 -1.232103,0.75195 -2.143554,0.77149 l 0,-0.75196"
         id="path3006"
         inkscape:connector-curvature="0" />
      <path
         d="m 79.167011,209.27136 0,0.83985 c -0.253911,-0.13997 -0.509444,-0.24414 -0.766601,-0.3125 -0.25391,-0.0716 -0.511072,-0.10742 -0.771485,-0.10743 -0.582685,1e-5 -1.035158,0.18556 -1.357422,0.55664 -0.322267,0.36785 -0.483399,0.88542 -0.483398,1.55274 -10e-7,0.66732 0.161131,1.18652 0.483398,1.55762 0.322264,0.36784 0.774737,0.55175 1.357422,0.55175 0.260413,0 0.517575,-0.0342 0.771485,-0.10253 0.257157,-0.0716 0.51269,-0.17741 0.766601,-0.31739 l 0,0.83008 c -0.250655,0.11719 -0.511072,0.20508 -0.78125,0.26367 -0.266931,0.0586 -0.551761,0.0879 -0.854492,0.0879 -0.82357,0 -1.477866,-0.25879 -1.962891,-0.77636 -0.485026,-0.51758 -0.727539,-1.21582 -0.727539,-2.09473 0,-0.89192 0.24414,-1.59342 0.732422,-2.10449 0.491535,-0.51107 1.163735,-0.7666 2.016602,-0.7666 0.276689,0 0.546871,0.0293 0.810547,0.0879 0.263667,0.0553 0.519201,0.13998 0.766601,0.2539"
         id="path3008"
         inkscape:connector-curvature="0" />
      <path
         d="m 80.739277,206.9325 0.898437,0 0,7.59765 -0.898437,0 0,-7.59765"
         id="path3010"
         inkscape:connector-curvature="0" />
      <path
         d="m 88.190449,211.57117 0,0.43945 -4.13086,0 c 0.03906,0.61849 0.224608,1.0905 0.556641,1.41602 0.335284,0.32226 0.800778,0.48339 1.396484,0.48339 0.345049,0 0.678707,-0.0423 1.000977,-0.12695 0.325516,-0.0846 0.647781,-0.21159 0.966797,-0.38086 l 0,0.84961 c -0.322271,0.13672 -0.652674,0.24089 -0.991211,0.3125 -0.338546,0.0716 -0.68197,0.10742 -1.030274,0.10742 -0.872398,0 -1.564129,-0.2539 -2.075195,-0.76172 -0.507813,-0.50781 -0.761719,-1.19466 -0.761719,-2.06054 0,-0.89518 0.240885,-1.60482 0.722657,-2.12891 0.485024,-0.52734 1.137693,-0.79101 1.958007,-0.79101 0.735674,0 1.316728,0.23763 1.743165,0.71289 0.429682,0.47201 0.644525,1.11491 0.644531,1.92871 m -0.898438,-0.26367 c -0.0065,-0.49154 -0.144861,-0.88379 -0.415039,-1.17676 -0.266931,-0.29297 -0.621748,-0.43945 -1.064453,-0.43946 -0.501305,1e-5 -0.903323,0.14161 -1.206055,0.42481 -0.299481,0.28321 -0.472006,0.68197 -0.517578,1.19629 l 3.203125,-0.005"
         id="path3012"
         inkscape:connector-curvature="0" />
      <path
         d="m 92.15041,211.78113 c -0.725914,0 -1.228844,0.083 -1.508789,0.24902 -0.27995,0.16602 -0.419924,0.44922 -0.419922,0.84961 -2e-6,0.31901 0.104165,0.57292 0.3125,0.76172 0.211586,0.18555 0.498044,0.27832 0.859375,0.27832 0.498043,0 0.896806,-0.17578 1.196289,-0.52734 0.30273,-0.35482 0.454097,-0.8252 0.454101,-1.41114 l 0,-0.20019 -0.893554,0 m 1.791992,-0.3711 0,3.12012 -0.898438,0 0,-0.83008 c -0.205082,0.33203 -0.460615,0.5778 -0.766601,0.73731 -0.305993,0.15625 -0.680342,0.23437 -1.123047,0.23437 -0.559898,0 -1.005861,-0.15625 -1.337891,-0.46875 -0.328776,-0.31575 -0.493164,-0.7373 -0.493164,-1.26465 0,-0.61523 0.205078,-1.07909 0.615235,-1.3916 0.413409,-0.31249 1.028643,-0.46874 1.845703,-0.46875 l 1.259765,0 0,-0.0879 c -4e-6,-0.41341 -0.136723,-0.73242 -0.410156,-0.95703 -0.270186,-0.22786 -0.651045,-0.34179 -1.142578,-0.3418 -0.312502,1e-5 -0.616864,0.0374 -0.913086,0.11231 -0.296225,0.0749 -0.581056,0.18718 -0.854492,0.33691 l 0,-0.83008 c 0.328775,-0.12694 0.647785,-0.22134 0.957031,-0.2832 0.309243,-0.0651 0.610349,-0.0976 0.90332,-0.0976 0.791012,0 1.381832,0.20508 1.772461,0.61523 0.39062,0.41016 0.585933,1.0319 0.585938,1.86523"
         id="path3014"
         inkscape:connector-curvature="0" />
      <path
         d="m 98.966816,209.90125 c -0.100916,-0.0586 -0.211592,-0.10091 -0.332031,-0.12696 -0.117191,-0.0293 -0.2474,-0.0439 -0.390625,-0.0439 -0.507816,0 -0.89844,0.16602 -1.171875,0.49804 -0.270185,0.32878 -0.405276,0.80242 -0.405274,1.4209 l 0,2.88086 -0.90332,0 0,-5.46875 0.90332,0 0,0.84961 c 0.1888,-0.33203 0.434568,-0.57779 0.737305,-0.7373 0.302731,-0.16276 0.67057,-0.24414 1.103516,-0.24414 0.06185,0 0.130204,0.005 0.205078,0.0146 0.07487,0.007 0.157873,0.0179 0.249023,0.0342 l 0.0049,0.92286"
         id="path3016"
         inkscape:connector-curvature="0" />
      <path
         d="m 104.001,210.11121 c 0.2246,-0.40364 0.49315,-0.7015 0.80566,-0.89356 0.31249,-0.19205 0.68033,-0.28808 1.10352,-0.28808 0.56965,0 1.0091,0.2002 1.31835,0.60058 0.30924,0.39714 0.46386,0.96355 0.46387,1.69922 l 0,3.30078 -0.90332,0 0,-3.27148 c -1e-5,-0.52409 -0.0928,-0.91308 -0.27832,-1.167 -0.18555,-0.2539 -0.46876,-0.38085 -0.84961,-0.38085 -0.4655,0 -0.83334,0.15462 -1.10351,0.46386 -0.27019,0.30925 -0.40528,0.7308 -0.40528,1.26465 l 0,3.09082 -0.90332,0 0,-3.27148 c 0,-0.52734 -0.0928,-0.91634 -0.27832,-1.167 -0.18555,-0.2539 -0.47201,-0.38085 -0.85937,-0.38085 -0.45899,0 -0.82357,0.15625 -1.09375,0.46875 -0.27019,0.30924 -0.40528,0.72917 -0.40528,1.25976 l 0,3.09082 -0.903317,0 0,-5.46875 0.903317,0 0,0.84961 c 0.20508,-0.33528 0.45085,-0.58268 0.73731,-0.74219 0.28645,-0.1595 0.62662,-0.23925 1.02051,-0.23925 0.39713,0 0.73404,0.10091 1.01074,0.30273 0.27994,0.20183 0.48665,0.4948 0.62012,0.87891"
         id="path3018"
         inkscape:connector-curvature="0" />
      <path
         d="m 109.48928,209.0614 0.89843,0 0,5.46875 -0.89843,0 0,-5.46875 m 0,-2.1289 0.89843,0 0,1.13769 -0.89843,0 0,-1.13769"
         id="path3020"
         inkscape:connector-curvature="0" />
      <path
         d="m 116.80861,211.22937 0,3.30078 -0.89843,0 0,-3.27148 c -1e-5,-0.51758 -0.10092,-0.90495 -0.30274,-1.16211 -0.20183,-0.25716 -0.50456,-0.38574 -0.9082,-0.38574 -0.48503,0 -0.86752,0.15462 -1.14746,0.46386 -0.27995,0.30925 -0.41993,0.7308 -0.41992,1.26465 l 0,3.09082 -0.90333,0 0,-5.46875 0.90333,0 0,0.84961 c 0.21484,-0.32877 0.46712,-0.57454 0.75683,-0.7373 0.29297,-0.16276 0.62988,-0.24414 1.01074,-0.24414 0.62825,0 1.10351,0.19531 1.42578,0.58593 0.32226,0.38738 0.4834,0.95867 0.4834,1.71387"
         id="path3022"
         inkscape:connector-curvature="0" />
      <path
         d="m 122.209,209.89148 0,-2.95898 0.89844,0 0,7.59765 -0.89844,0 0,-0.82031 c -0.1888,0.32552 -0.42806,0.56803 -0.71777,0.72754 -0.28646,0.15625 -0.63151,0.23437 -1.03516,0.23437 -0.66081,0 -1.19954,-0.26367 -1.61621,-0.79101 -0.41341,-0.52735 -0.62011,-1.2207 -0.62011,-2.08008 0,-0.85937 0.2067,-1.55273 0.62011,-2.08008 0.41667,-0.52734 0.9554,-0.79101 1.61621,-0.79101 0.40365,0 0.7487,0.0797 1.03516,0.23925 0.28971,0.15626 0.52897,0.39714 0.71777,0.72266 m -3.06152,1.90918 c 0,0.66081 0.13509,1.18001 0.40527,1.55762 0.27344,0.37435 0.64779,0.56152 1.12305,0.56152 0.47526,0 0.84961,-0.18717 1.12305,-0.56152 0.27343,-0.37761 0.41015,-0.89681 0.41015,-1.55762 0,-0.6608 -0.13672,-1.17838 -0.41015,-1.55274 -0.27344,-0.37759 -0.64779,-0.5664 -1.12305,-0.5664 -0.47526,0 -0.84961,0.18881 -1.12305,0.5664 -0.27018,0.37436 -0.40527,0.89194 -0.40527,1.55274"
         id="path3024"
         inkscape:connector-curvature="0" />
      <path
         d="m 125.08498,213.28992 1.03027,0 0,1.24023 -1.03027,0 0,-1.24023"
         id="path3026"
         inkscape:connector-curvature="0" />
      <path
         d="m 132.39943,210.11121 c 0.22461,-0.40364 0.49316,-0.7015 0.80567,-0.89356 0.31249,-0.19205 0.68033,-0.28808 1.10351,-0.28808 0.56966,0 1.00911,0.2002 1.31836,0.60058 0.30924,0.39714 0.46386,0.96355 0.46387,1.69922 l 0,3.30078 -0.90332,0 0,-3.27148 c -1e-5,-0.52409 -0.0928,-0.91308 -0.27832,-1.167 -0.18556,-0.2539 -0.46876,-0.38085 -0.84961,-0.38085 -0.4655,0 -0.83334,0.15462 -1.10352,0.46386 -0.27018,0.30925 -0.40528,0.7308 -0.40527,1.26465 l 0,3.09082 -0.90332,0 0,-3.27148 c 0,-0.52734 -0.0928,-0.91634 -0.27832,-1.167 -0.18555,-0.2539 -0.47201,-0.38085 -0.85938,-0.38085 -0.45898,0 -0.82357,0.15625 -1.09375,0.46875 -0.27018,0.30924 -0.40527,0.72917 -0.40527,1.25976 l 0,3.09082 -0.90332,0 0,-5.46875 0.90332,0 0,0.84961 c 0.20508,-0.33528 0.45085,-0.58268 0.73731,-0.74219 0.28645,-0.1595 0.62662,-0.23925 1.0205,-0.23925 0.39714,0 0.73405,0.10091 1.01075,0.30273 0.27994,0.20183 0.48664,0.4948 0.62011,0.87891"
         id="path3028"
         inkscape:connector-curvature="0" />
      <path
         d="m 142.56545,211.57117 0,0.43945 -4.13086,0 c 0.0391,0.61849 0.22461,1.0905 0.55664,1.41602 0.33528,0.32226 0.80078,0.48339 1.39648,0.48339 0.34505,0 0.67871,-0.0423 1.00098,-0.12695 0.32552,-0.0846 0.64778,-0.21159 0.9668,-0.38086 l 0,0.84961 c -0.32227,0.13672 -0.65268,0.24089 -0.99121,0.3125 -0.33855,0.0716 -0.68197,0.10742 -1.03028,0.10742 -0.87239,0 -1.56413,-0.2539 -2.07519,-0.76172 -0.50782,-0.50781 -0.76172,-1.19466 -0.76172,-2.06054 0,-0.89518 0.24088,-1.60482 0.72266,-2.12891 0.48502,-0.52734 1.13769,-0.79101 1.958,-0.79101 0.73568,0 1.31673,0.23763 1.74317,0.71289 0.42968,0.47201 0.64452,1.11491 0.64453,1.92871 m -0.89844,-0.26367 c -0.007,-0.49154 -0.14486,-0.88379 -0.41504,-1.17676 -0.26693,-0.29297 -0.62175,-0.43945 -1.06445,-0.43946 -0.50131,1e-5 -0.90332,0.14161 -1.20606,0.42481 -0.29948,0.28321 -0.472,0.68197 -0.51757,1.19629 l 3.20312,-0.005"
         id="path3030"
         inkscape:connector-curvature="0" />
    </g>
  </g>
</svg>
